<svg xmlns="http://www.w3.org/2000/svg" xmlns:xlink="http://www.w3.org/1999/xlink" width="750" height="500" viewBox="0 0 750 500">
  <defs>
    <clipPath id="clip-Artboard_1">
      <rect width="750" height="500"/>
    </clipPath>
  </defs>
  <g id="Artboard_1" data-name="Artboard 1" clip-path="url(#clip-Artboard_1)">
    <rect width="750" height="500" fill="#fff"/>
    <g id="BACKGROUND">
      <g id="Group_2" data-name="Group 2">
        <g id="Group_1" data-name="Group 1">
          <path id="Path_146" data-name="Path 146" d="M0,0H750V500H0Z" fill="rgba(255,74,13,0.78)"/>
          <path id="Path_1" data-name="Path 1" d="M135.32,432.179,34.284,342.857l72.424-48.337-40.72-65.272,88.838-7.368-20.469-97.334,89.155,44.9L241.082,65.326l50.109,95.012,44.739-114L387.5,164.242l108.678-51.411L478.58,203.5l149.707-60.482-68.329,134.46L688.17,261.584l-68.992,85.524,96.538,15.079-92.783,70.724Z" fill="#f23d00"/>
          <path id="Path_2" data-name="Path 2" d="M35.714,290.973l50.9-.024L44.326,265.643Z" fill="#f23d00"/>
          <path id="Path_3" data-name="Path 3" d="M60.12,173.51l78.313,36.2-55.28-66.467Z" fill="#f23d00"/>
          <path id="Path_4" data-name="Path 4" d="M35.771,387.391l75.974,30.128-81.9-11.043Z" fill="#f23d00"/>
          <path id="Path_5" data-name="Path 5" d="M528.5,118.32l-39.568,70.342,62.283-54.222Z" fill="#f23d00"/>
          <path id="Path_6" data-name="Path 6" d="M653.065,234.092,617.161,259l48.36-10.991Z" fill="#f23d00"/>
          <path id="Path_7" data-name="Path 7" d="M688.237,318.356l-41.766,24.18,49.093-4.4Z" fill="#f23d00"/>
          <path id="Path_8" data-name="Path 8" d="M155.394,430.214,82.029,341.632l46.193-35.324L98.876,242.181l68.475-9.239-8.7-77.17,70.1,29.346L249.954,112.3l44.019,71.192,42.389-107.6,44.563,100.538,88.582-26.085L458.1,228.595l128.254-48.367L540.7,289.461l104.342-7.608L599.392,352.5l65.757,20.651-70.1,60.323" fill="#ed6436"/>
        </g>
      </g>
    </g>
    <g id="OBJECTS">
      <g id="Group_54" data-name="Group 54">
        <g id="Group_35" data-name="Group 35">
          <g id="Group_3" data-name="Group 3">
            <rect id="Rectangle_2" data-name="Rectangle 2" width="84.89" height="134.243" rx="8.609" transform="translate(536.902 292.462)" fill="#1a1a28"/>
            <rect id="Rectangle_3" data-name="Rectangle 3" width="84.89" height="134.243" rx="8.609" transform="translate(516.857 292.462)" fill="#2d2d44"/>
            <path id="Path_9" data-name="Path 9" d="M589.729,420.155H528.875a7.963,7.963,0,0,1-7.954-7.955V306.967a7.963,7.963,0,0,1,7.954-7.955h60.854a7.964,7.964,0,0,1,7.955,7.955V412.2A7.964,7.964,0,0,1,589.729,420.155ZM528.875,299.44a7.536,7.536,0,0,0-7.527,7.527V412.2a7.536,7.536,0,0,0,7.527,7.528h60.854a7.536,7.536,0,0,0,7.527-7.528V306.967a7.536,7.536,0,0,0-7.527-7.527Z" fill="#1a1a28"/>
          </g>
          <g id="Group_8" data-name="Group 8">
            <g id="Group_7" data-name="Group 7">
              <g id="Group_6" data-name="Group 6">
                <g id="Group_5" data-name="Group 5">
                  <g id="Group_4" data-name="Group 4">
                    <path id="Path_10" data-name="Path 10" d="M312.683,426.32h-156.6s-28.7-168.689-25.179-184.551,15.107-19.89,23.919-19.89H255.53c11.582,0,20.141-2.518,25.177,7.553S312.683,426.32,312.683,426.32Z" fill="#2d2d44"/>
                    <path id="Path_11" data-name="Path 11" d="M217.7,261.5a5.306,5.306,0,0,0-7.724-.953,4.672,4.672,0,0,0-1.527,2.526,5.081,5.081,0,0,0,.173,3.691c1.214,2.731,4.708,3.536,7.267,2.288A5.244,5.244,0,0,0,217.7,261.5Z" fill="#1a1a28"/>
                    <path id="Path_12" data-name="Path 12" d="M225.663,298.463a5.307,5.307,0,0,0-7.724-.952,4.672,4.672,0,0,0-1.527,2.526,5.078,5.078,0,0,0,.173,3.69c1.214,2.732,4.708,3.537,7.267,2.289A5.244,5.244,0,0,0,225.663,298.463Z" fill="#1a1a28"/>
                    <path id="Path_13" data-name="Path 13" d="M265.181,257.034a5.309,5.309,0,0,0-7.725-.953,4.672,4.672,0,0,0-1.526,2.526,5.075,5.075,0,0,0,.172,3.691c1.214,2.731,4.708,3.536,7.268,2.288A5.244,5.244,0,0,0,265.181,257.034Z" fill="#1a1a28"/>
                    <path id="Path_14" data-name="Path 14" d="M212.337,426.32H156.079s-28.7-168.689-25.179-184.551,15.107-19.89,23.919-19.89h.006c.376,0,18.646.081,22.977,15.8C181.591,251.419,205.871,389.425,212.337,426.32Z" fill="#1a1a28"/>
                    <path id="Path_15" data-name="Path 15" d="M288.009,255.616" fill="#19192b"/>
                  </g>
                </g>
              </g>
            </g>
          </g>
          <g id="Group_9" data-name="Group 9">
            <path id="Path_16" data-name="Path 16" d="M187.995,183.7h-23.92s2.219,13.762,6.478,19.934h24.419S191.982,197.155,187.995,183.7Z" fill="#fff"/>
            <path id="Path_17" data-name="Path 17" d="M200.641,176.891h-23.92s2.219,13.762,6.478,19.933h24.419S204.628,190.346,200.641,176.891Z" fill="#ffc63c"/>
            <path id="Path_18" data-name="Path 18" d="M190.767,173l1.141,6.275h-3.613l-.761-5.895Z" fill="#2d2d44"/>
            <path id="Path_19" data-name="Path 19" d="M175.556,180.1l1.141,6.275h-3.613l-.761-5.895Z" fill="#2d2d44"/>
          </g>
          <g id="Group_10" data-name="Group 10">
            <path id="Path_20" data-name="Path 20" d="M426.32,206.446h23.921s-2.22,13.762-6.479,19.934H419.343S422.333,219.9,426.32,206.446Z" fill="#fff"/>
            <path id="Path_21" data-name="Path 21" d="M413.674,199.637H437.6s-2.22,13.762-6.479,19.933H406.7S409.687,213.092,413.674,199.637Z" fill="#ffc63c"/>
            <path id="Path_22" data-name="Path 22" d="M423.548,195.742l-1.141,6.275h3.613l.761-5.895Z" fill="#2d2d44"/>
            <path id="Path_23" data-name="Path 23" d="M438.76,202.841l-1.141,6.275h3.613l.761-5.895Z" fill="#2d2d44"/>
          </g>
          <g id="Group_29" data-name="Group 29">
            <g id="Group_11" data-name="Group 11">
              <path id="Path_24" data-name="Path 24" d="M279.715,149.783l7.923-5.419L299.2,164.311Z" fill="#ffc63c"/>
              <path id="Path_25" data-name="Path 25" d="M326.96,150.038l-4.926-.891-1.255,11.96Z" fill="#ffc63c"/>
              <path id="Path_26" data-name="Path 26" d="M302.664,124.45l9.5,1.374-3.643,36.186Z" fill="#ffc63c"/>
            </g>
            <g id="Group_28" data-name="Group 28">
              <g id="Group_13" data-name="Group 13">
                <g id="Group_12" data-name="Group 12">
                  <path id="Path_27" data-name="Path 27" d="M344.136,327.8s28.994,10.873,34.963,15.137,9.381,11.512,13.645,11.3a11.692,11.692,0,0,0,6.4-1.919s6.609,3.411,10.447,3.624,19.613-.853,23.451-10.446-5.33-31.979-11.513-39.014-30.7-4.477-30.7-4.477-39.867-24.943-45.41-26.436S324.949,310.313,344.136,327.8Z" fill="#f2ebdf"/>
                  <path id="Path_28" data-name="Path 28" d="M381.962,339.65c-.525-2.144-1.38-4.2-2-6.318-.628-2.133-1.2-4.27-1.679-6.441a83.861,83.861,0,0,1-1.789-13.239c-.144-2.521-.034-5.051-.2-7.568-.042-.616-1.039-.851-1.155-.156a34.6,34.6,0,0,0-.248,6.811c.076,2.261.282,4.518.579,6.761a65.051,65.051,0,0,0,3.148,13.257,33.035,33.035,0,0,0,3.084,7.006A.147.147,0,0,0,381.962,339.65Z" fill="#c4b199"/>
                  <path id="Path_29" data-name="Path 29" d="M373.107,313.172c.553-1.255,1.186-2.47,1.811-3.691.312-.61.652-1.21.941-1.831.21-.451.455-.869.222-1.345a.275.275,0,0,0-.246-.141c-.86.084-1.366,1.432-1.744,2.089q-.836,1.449-1.567,2.952a30.143,30.143,0,0,0-2.335,6.376c-.829,3.535-.816,7.6.9,10.888a12.514,12.514,0,0,0,1.634,2.429,5.5,5.5,0,0,0,2.241,1.75c.176.053.366-.165.251-.327-.6-.854-1.468-1.5-2.073-2.376A12.28,12.28,0,0,1,371.7,327a15.158,15.158,0,0,1-.767-6.357A23.806,23.806,0,0,1,373.107,313.172Z" fill="#c4b199"/>
                  <path id="Path_30" data-name="Path 30" d="M396.8,345.82c-.479-.56-.942-1.136-1.4-1.72a.2.2,0,0,0,.026-.076,10.911,10.911,0,0,0-.317-2.982c-.206-1.13-.46-2.253-.749-3.365-.556-2.138-1.168-4.259-1.889-6.347q-1.065-3.084-2.357-6.079-.632-1.459-1.31-2.9a9.681,9.681,0,0,0-1.459-2.494c-1.043-1.138-3.068-1.506-3.988-.01-.825,1.341-.224,3.1.213,4.46a61.754,61.754,0,0,0,4.728,11.129,62.613,62.613,0,0,0,7.914,10.965C396.565,346.808,397.14,346.222,396.8,345.82ZM385.68,327.013a25.012,25.012,0,0,1-1.571-4.811,2.374,2.374,0,0,1,.29-1.95c.761-.815,1.9.049,2.365.738a15.165,15.165,0,0,1,1.11,2.214q.68,1.5,1.3,3.015c.737,1.8,1.432,3.613,2.069,5.448.724,2.086,1.408,4.189,2,6.317q.423,1.531.844,3.065c.187.685.343,1.4.574,2.082a72.439,72.439,0,0,1-4.212-6.4A68.3,68.3,0,0,1,385.68,327.013Z" fill="#c4b199"/>
                </g>
                <path id="Path_31" data-name="Path 31" d="M370.908,219.409s-9-3.6-13.239-4.627-7.924-1.208-8.355.257,3.47,2.185,5.4,2.956,13.625,5.013,14.4,6.556c-1.414,6.169-2.767,24.837-1.867,27.922a12.876,12.876,0,0,0,2.089,4.106,35.283,35.283,0,0,1,4.777,9.45c6.923,21.142,24.91,77.62,39.6,82.942,16.324,5.912,25.064-6.041,27.763-13.368s-8.354-27.249-10.539-31.876c-1.906-4.035-33.151-45.708-41.611-56.778a8.573,8.573,0,0,1-1.745-5.733c.4-6.437-.753-22.611-1.245-26.948-.643-5.656-8.1-18.9-10.54-19.409s.514,6.555,2.185,9.383,2.828,10.54,2.7,11.954c-5.655-13.239-10.54-20.18-12.853-19.794s7.969,20.565,7.969,20.565-15.424-15.038-19.409-13.5C352.785,204.864,370.908,219.409,370.908,219.409Z" fill="#faa88d"/>
              </g>
              <g id="Group_15" data-name="Group 15">
                <g id="Group_14" data-name="Group 14">
                  <path id="Path_32" data-name="Path 32" d="M339.4,370.348a562.729,562.729,0,0,0-6.455,56.742H190.419s6.454-24.74,14.252-46.254,17.48-86.862,19.631-93.048,5.573-14.144,9.682-18.017c2.894-2.727,22.658-7.617,34.372-10.363,4.917-1.152,8.417-1.928,8.655-2.007,0,0,43.834,2.42,45.179,2.42.534,0,2.38,1.568,4.933,3.675,3.883,3.206,9.4,7.663,14.43,9.772,8.335,3.495,9.143,6.185,9.949,16.4C352.039,311.185,344.511,339.69,339.4,370.348Z" fill="#fff"/>
                  <path id="Path_33" data-name="Path 33" d="M339.1,290.362c-6.543,1.091-10.18-5.816-13.088-4s-11.816,12.724-11.816,12.724-3.817-6.545-6.725-9.089-10-7.453-12.543-4-9.453,11.815-19.814,13.451c3.453-9.633-3.272-27.449-5.634-33.084a15.371,15.371,0,0,1-1.119-6.959c4.917-1.152,8.417-1.928,8.655-2.007,0,0,43.834,2.42,45.179,2.42.534,0,2.38,1.568,4.933,3.675,1.314,3.968,1.574,8.29,3.065,11.96C332.552,281.274,334.005,285.091,339.1,290.362Z" fill="#e2d3bf"/>
                  <path id="Path_34" data-name="Path 34" d="M273.35,326.482s-2.8,23.617,1.671,29.51c6.124,8.074,20.885,7.768,23.385-4.733,1.949-9.743,1.67-24.5,1.67-24.5Z" fill="#f2ebdf"/>
                </g>
              </g>
              <g id="Group_24" data-name="Group 24">
                <path id="Path_35" data-name="Path 35" d="M319.8,295.723s9.316-6.356,9.206-15.124c-4.274-1.315-5.589-.219-5.918.329s-2.521,9.973-4.493,11.946S319.8,295.723,319.8,295.723Z" fill="#f23d00"/>
                <path id="Path_36" data-name="Path 36" d="M290.5,276.468s7.984,16.766,18.363,20.137a15.366,15.366,0,0,1-.355-5.322l-7.1-13.573Z" fill="#f23d00"/>
                <path id="Path_37" data-name="Path 37" d="M294.087,246.309s-4.765-.981-7.288.981-4.346,6.308-9.252,8.27-6.027,2.8-5.887,5.046,4.486,13.456,7.289,18.923S280.211,292,280.211,292s9.531-4.906,11.073-11.634,21.449,5.806,23.2,15.308c6.656-5.356,9.039-14.607,11.422-15.168s10.653,7.99,14.017,4.766c-6.448-4.625-7.149-10.092-9.391-17.241s-4.906-11.914-12.616-15S294.087,246.309,294.087,246.309Z" fill="#fff"/>
                <g id="Group_22" data-name="Group 22">
                  <g id="Group_16" data-name="Group 16">
                    <path id="Path_38" data-name="Path 38" d="M296.136,235.9s-5.66-12.479-10.448-22.056-1.887-21.476,4.063-25.539a64.443,64.443,0,0,1,8.561-5.224s1.452-10.739,8.417-13.06,17.7.58,24.378,4.208,17.994,7.691,25.685,4.789c-.146,6.094-5.515,11.028-5.515,11.028s7.4,2.9,7.111,12.189a13.153,13.153,0,0,0-8.271-3.628s3.337,7.981,1.451,13.205-8.272,9-8.272,9Z" fill="#2d2d44"/>
                    <path id="Path_39" data-name="Path 39" d="M312.293,192.925s-2.237,6.189-5.5,7.422-12.422.088-16.562,4.229,3.612,27.221,8.457,31.009,30.481,3.788,37.969-3.964-5.109-20.879-6.519-22.112-15.064-9.955-15.329-10.4S312.293,192.925,312.293,192.925Z" fill="#19192b"/>
                    <path id="Path_40" data-name="Path 40" d="M303.735,187.731a10.626,10.626,0,0,1-4.006,3.564c-1.615.865-3.29,1.614-4.883,2.519a13.616,13.616,0,0,0-3.9,3.09,6.031,6.031,0,0,0-1.413,4.186c0,.034.056.045.062.009a8.821,8.821,0,0,1,2.488-4.3,16.873,16.873,0,0,1,4.366-2.963c2.747-1.434,5.932-3.156,7.371-6.055A.049.049,0,0,0,303.735,187.731Z" fill="#19192b"/>
                    <path id="Path_41" data-name="Path 41" d="M306.544,193.024a.108.108,0,0,0-.182-.076,4.531,4.531,0,0,0-.712,1.1,6.966,6.966,0,0,1-.938,1.218,8.683,8.683,0,0,1-2.453,1.775c-.056.026-.016.114.041.1a5.979,5.979,0,0,0,2.747-1.538C305.663,194.991,306.628,193.951,306.544,193.024Z" fill="#19192b"/>
                    <path id="Path_42" data-name="Path 42" d="M337.215,190.747a6.137,6.137,0,0,0-.993-.974,8.3,8.3,0,0,0-1.351-.713,11.121,11.121,0,0,0-2.887-.747,29.971,29.971,0,0,0-6.889.181,19.491,19.491,0,0,1-7.492-.327,16.272,16.272,0,0,1-5.747-3.344c-.072-.061-.2.019-.14.108,2.622,3.788,7.381,4.782,11.724,4.5a62.733,62.733,0,0,1,7.31-.427,13.421,13.421,0,0,1,3.21.523,11.324,11.324,0,0,1,3.093,1.431C337.18,191.046,337.316,190.853,337.215,190.747Z" fill="#19192b"/>
                    <path id="Path_43" data-name="Path 43" d="M324.911,193.42a8.354,8.354,0,0,1-2.649-.083,13.36,13.36,0,0,1-2.5-.948.085.085,0,0,0-.1.133,4.808,4.808,0,0,0,5.273,1.038C325,193.533,325,193.411,324.911,193.42Z" fill="#19192b"/>
                    <path id="Path_44" data-name="Path 44" d="M327.171,180.319c-1.936-1.238-4.333-.38-6.449-.87a.049.049,0,0,0-.026.1c2.109.6,4.384-.066,6.416.875A.058.058,0,0,0,327.171,180.319Z" fill="#19192b"/>
                  </g>
                  <g id="Group_17" data-name="Group 17">
                    <path id="Path_45" data-name="Path 45" d="M314.484,295.678c.195-8.384-10.6-19.084-15.593-24.494s-13.942-7.7-13.318-16.648c6.475-3.3,9.287-13.454,10.507-21.653a86.5,86.5,0,0,0,.938-11.433c22.266-2.912,25.187,18.185,24.762,19.977a120.4,120.4,0,0,0-1.872,12.9,11.6,11.6,0,0,0-.008,2.791c.42,2.921,2.416,2.372,2.92,6.573C323.445,268.894,320.532,286.374,314.484,295.678Z" fill="#faa88d"/>
                    <path id="Path_46" data-name="Path 46" d="M321.78,241.427a120.4,120.4,0,0,0-1.872,12.9,11.6,11.6,0,0,0-.008,2.791c-5.9-2.414-13.846-6.416-18.3-11.114a16.624,16.624,0,0,1-2.942-4.544,24.643,24.643,0,0,1-2.062-12.712c.426-4.263.426-7.3.426-7.3C319.284,218.538,322.2,239.635,321.78,241.427Z" fill="#ef7882"/>
                  </g>
                  <path id="Path_47" data-name="Path 47" d="M346.4,209.533c1.11,3.151-1.125,16.878-3.22,25.73-1.574,6.651-3.281,11.575-8.449,14.511s-19.616.47-28.542-5.168-6.343-16.679-5.991-21.847,3.054-17.619,3.054-17.619,5.4-.587,6.7-1.879,2.349-10.336,2.349-10.336,4.346,5.52,10.572,7.4S342.051,197.2,346.4,209.533Z" fill="#faa88d"/>
                  <g id="Group_18" data-name="Group 18">
                    <path id="Path_48" data-name="Path 48" d="M344.767,218.175a5.411,5.411,0,0,1-5.357,2.374c-3.47-.651-4.681-4.241-4.681-4.241S340.227,220.424,344.767,218.175Z" fill="#2d2d44"/>
                    <path id="Path_49" data-name="Path 49" d="M335.586,211.737a1.237,1.237,0,0,0-1.51.357,4.038,4.038,0,0,0-.769,1.751,17.39,17.39,0,0,0-.511,4.2c0,.384,0,.772.039,1.156.019.2.051.417.089.619a.824.824,0,0,0,.239.486.126.126,0,0,0,.2-.025,1.592,1.592,0,0,0,.119-.876c.013-.317-.012-.635-.018-.952a18.059,18.059,0,0,1,.068-1.9,16.978,16.978,0,0,1,.272-1.864,8.171,8.171,0,0,1,.452-1.716,1.686,1.686,0,0,1,1.278-1.021A.115.115,0,0,0,335.586,211.737Z" fill="#2d2d44"/>
                    <path id="Path_50" data-name="Path 50" d="M346.306,213.05a8.277,8.277,0,0,0-1.166-.34q-.7-.174-1.407-.323a36.969,36.969,0,0,0-5.8-.752c-.538-.026-1.075-.042-1.614-.027-.275.008-.55.019-.824.04a3.754,3.754,0,0,0-.424.038,2.032,2.032,0,0,0-.377.132.171.171,0,0,0,0,.326,2.39,2.39,0,0,0,.663.144c.229.016.458.033.687.046.458.027.916.058,1.374.085.915.054,1.83.136,2.74.245a40.229,40.229,0,0,1,5.286,1,3.08,3.08,0,0,1,.964.381.9.9,0,0,1,.17.129c.022.019.043.04.064.061,0,0,.082.1.045.049a1.329,1.329,0,0,1,.224.395.28.28,0,0,0,.536,0C347.754,213.867,346.96,213.319,346.306,213.05Z" fill="#2d2d44"/>
                    <path id="Path_51" data-name="Path 51" d="M347.547,214.61a.182.182,0,0,0-.33-.043,3.231,3.231,0,0,0-.234.959c-.048.341-.1.682-.138,1.024-.082.677-.174,1.354-.247,2.032-.036.339-.061.676-.07,1.016s-.064.68-.1,1.017c-.065.557-.137,1.119-.255,1.669a3.918,3.918,0,0,1-.512,1.374,2.009,2.009,0,0,1-1.185.824,4.211,4.211,0,0,1-.823.094c-.317.02-.634.03-.951.037-.668.012-1.335,0-2-.038a24.609,24.609,0,0,1-4.439-.619.425.425,0,0,0-.512.291.42.42,0,0,0,.29.512,30.177,30.177,0,0,0,4.212.55c.69.037,1.381.044,2.072.025a10.886,10.886,0,0,0,1.975-.171,3.093,3.093,0,0,0,1.557-.732,3.247,3.247,0,0,0,.778-1.371,7.836,7.836,0,0,0,.27-1.572c.066-.7.118-1.4.246-2.088.147-.789.2-1.6.282-2.394.041-.4.082-.794.115-1.192A3.985,3.985,0,0,0,347.547,214.61Z" fill="#2d2d44"/>
                  </g>
                  <g id="Group_19" data-name="Group 19">
                    <path id="Path_52" data-name="Path 52" d="M301.043,216.419s-.971-8.413-5.113-10.1-5.953,5.177-5.177,9.707,4.207,6.795,6.213,7.054a5.449,5.449,0,0,0,3.818-1.423Z" fill="#faa88d"/>
                    <path id="Path_53" data-name="Path 53" d="M300.552,217.932a4.985,4.985,0,0,0-.953-1.62,11.955,11.955,0,0,1-.965-1.652,10.137,10.137,0,0,1-.643-1.739,21.007,21.007,0,0,0-.56-2.085,2.876,2.876,0,0,0-2.755-2.145,2.817,2.817,0,0,0-1.662.765,3.25,3.25,0,0,0-.881,1.617,5.124,5.124,0,0,0,.007,2.181c.039.2.089.393.144.586a4.792,4.792,0,0,0,.221.548c.167.387.364.759.567,1.128a.04.04,0,0,0,.073-.03c-.159-.678-.316-1.355-.463-2.034a4.664,4.664,0,0,1-.076-1.83,2.807,2.807,0,0,1,.714-1.487,2.1,2.1,0,0,1,1.279-.645c1.118-.1,1.8.914,2.1,1.887.194.632.3,1.287.476,1.922a11.415,11.415,0,0,0,.648,1.735,9.977,9.977,0,0,0,1.021,1.721,2.958,2.958,0,0,0,1.579,1.309A.109.109,0,0,0,300.552,217.932Z" fill="#ee877a"/>
                    <path id="Path_54" data-name="Path 54" d="M299.1,219.8a6.729,6.729,0,0,1-.827-.157,4.542,4.542,0,0,1-.813-.218,2.539,2.539,0,0,1-1.261-1.172,4.1,4.1,0,0,1,.219-3.8,11.465,11.465,0,0,1,.624-1.03c.112-.165.222-.333.326-.5a1.838,1.838,0,0,0,.136-.265,1.763,1.763,0,0,1,.1-.251c.066-.1-.072-.181-.153-.118s-.2.091-.286.145a1.7,1.7,0,0,0-.238.184,4.267,4.267,0,0,0-.417.433,6.714,6.714,0,0,0-.706,1.009,5.857,5.857,0,0,0-.734,2.247,3.734,3.734,0,0,0,1.864,3.829,2.675,2.675,0,0,0,1.183.319,1.664,1.664,0,0,0,1.065-.458A.112.112,0,0,0,299.1,219.8Z" fill="#ee877a"/>
                  </g>
                  <g id="Group_20" data-name="Group 20">
                    <path id="Path_55" data-name="Path 55" d="M335.446,237.088c-.344,2.924-2.873,5.027-5.314,4.6s-2.154-1.651-5.027-2.513a3.724,3.724,0,0,0-1.214-.158c-2.272.067-4.132,2.04-6.827.876a4.581,4.581,0,0,1-2.876-5.349,5.59,5.59,0,0,1,.579-1.544,6.563,6.563,0,0,1,2.272-2.538,4.8,4.8,0,0,1,3.9-.406c2.083.574,1.684,2.29,4.739,2.872,3.016.575,4.022-1.149,6.534-.79a4.311,4.311,0,0,1,.74.169C334.924,232.946,335.7,234.9,335.446,237.088Z" fill="#2d2d44"/>
                    <path id="Path_56" data-name="Path 56" d="M323.891,239.013c-2.272.067-4.132,2.04-6.827.876a4.581,4.581,0,0,1-2.876-5.349,4.37,4.37,0,0,1,2.251.657,7.866,7.866,0,0,0,3.337.965C321.753,236.284,323.133,236.8,323.891,239.013Z" fill="#ef515f"/>
                    <path id="Path_57" data-name="Path 57" d="M332.954,232.3a3.2,3.2,0,0,1-.687,1.563c-.783.71-3.625,2.344-8.74.71a14.916,14.916,0,0,1-6.488-4.118,4.8,4.8,0,0,1,3.9-.406c2.083.574,1.684,2.29,4.739,2.872,3.016.575,4.022-1.149,6.534-.79A4.311,4.311,0,0,1,332.954,232.3Z" fill="#fff"/>
                    <path id="Path_58" data-name="Path 58" d="M333.4,240.76c-.161.054-.33.087-.487.15s-.342.134-.518.189a5.029,5.029,0,0,1-1.032.2,4.41,4.41,0,0,1-2.033-.292c-1.383-.542-2.343-1.829-3.819-2.187-1.688-.41-3.372.266-4.977.706a5.9,5.9,0,0,1-2.483.262,3.48,3.48,0,0,1-1.642-.742,5,5,0,0,1-1.807-3.278,5.278,5.278,0,0,1,1.184-4.062,4.619,4.619,0,0,1,3.584-1.625,4.546,4.546,0,0,1,2.035.55,9.026,9.026,0,0,1,1.687,1.385,4.476,4.476,0,0,0,2.029,1.135,6.283,6.283,0,0,0,2.367-.022c.379-.059.754-.14,1.128-.229.395-.094.777-.234,1.168-.347a6.347,6.347,0,0,1,2.406-.268,5.891,5.891,0,0,1,1.162.239.116.116,0,0,0,.089-.212,4.292,4.292,0,0,0-2.37-.379c-.421.026-.839.075-1.258.125s-.844.091-1.258.172c-1.473.29-3.161.468-4.431-.506-.618-.473-1.121-1.077-1.753-1.535a5.168,5.168,0,0,0-2.188-.9,5.482,5.482,0,0,0-4.372,1.217,5.922,5.922,0,0,0-2.069,4.135,6.02,6.02,0,0,0,1.289,4.209,4.66,4.66,0,0,0,3.9,1.758,11.2,11.2,0,0,0,2.649-.574,10.8,10.8,0,0,1,2.505-.6,3.767,3.767,0,0,1,2.263.558c.653.4,1.223.926,1.877,1.328a4.931,4.931,0,0,0,4.411.29,3.12,3.12,0,0,0,.491-.253,2.142,2.142,0,0,0,.4-.377C333.606,240.886,333.53,240.715,333.4,240.76Z" fill="#ef7882"/>
                  </g>
                  <path id="Path_59" data-name="Path 59" d="M336.653,222.594a6.383,6.383,0,0,1-4.676-7.393,6.611,6.611,0,0,1,.526-1.518,3.542,3.542,0,0,0,.6-1.208.141.141,0,0,0-.178-.135c-.5.121-.8.678-1.061,1.091a6.624,6.624,0,0,0-.763,1.638,6.839,6.839,0,0,0-.173,3.884,7.323,7.323,0,0,0,4.071,4.593,30.765,30.765,0,0,0-4.442,3.748.3.3,0,0,0,.36.466,44.41,44.41,0,0,0,5.9-3.922A.691.691,0,0,0,336.653,222.594Z" fill="#ef7882"/>
                  <g id="Group_21" data-name="Group 21">
                    <path id="Path_60" data-name="Path 60" d="M314.436,214.594a5.411,5.411,0,0,0,4.678,3.528c3.528.153,5.522-3.068,5.522-3.068S318.347,217.815,314.436,214.594Z" fill="#2d2d44"/>
                    <path id="Path_61" data-name="Path 61" d="M328.651,211.634a2.742,2.742,0,0,0-.253-.494c-.9-1.394-2.553-1.561-4.061-1.713l-2.076-.207c-1.392-.139-2.785-.269-4.178-.4-.778-.074-1.557-.145-2.336-.208-.389-.032-.778-.069-1.168-.087-.189-.009-.378-.021-.567-.024-.217,0-.422.026-.637.036a.248.248,0,0,0-.105.03,2.212,2.212,0,0,0-1.329.624,3.355,3.355,0,0,0-.932,1.892,18.8,18.8,0,0,0-.187,2.406l-.124,2.548a10.926,10.926,0,0,0,.275,4.222,4.01,4.01,0,0,0,1.1,1.67,5.365,5.365,0,0,0,1.746.991,11.461,11.461,0,0,0,1.915.478q1.248.218,2.508.367t2.534.225a21.564,21.564,0,0,0,2.33.054,5.293,5.293,0,0,0,2.156-.5,3.765,3.765,0,0,0,1.442-1.367,7.373,7.373,0,0,0,.784-1.811c.1-.33.173-.669.263-1,.107-.4.207-.8.3-1.2.193-.815.383-1.625.53-2.45A7.822,7.822,0,0,0,328.651,211.634Zm-.96,5.394a16.644,16.644,0,0,1-1.124,4.012,4.344,4.344,0,0,1-1.014,1.438,3.391,3.391,0,0,1-1.685.765,9.522,9.522,0,0,1-2.018.075q-1.184-.043-2.364-.15a36.03,36.03,0,0,1-4.4-.62,4.759,4.759,0,0,1-3.044-1.65,5.9,5.9,0,0,1-.7-3.591c.046-1.545.14-3.089.212-4.633.055-1.2.119-2.778,1.384-3.357a1.676,1.676,0,0,1,.79-.14.25.25,0,0,0,.125-.023c.138.025.277.049.416.07.338.052.677.1,1.017.137.66.077,1.32.157,1.982.226l3.93.408c1.27.131,2.545.227,3.812.386a7.153,7.153,0,0,1,1.516.339,2.97,2.97,0,0,1,1.185.741,2.253,2.253,0,0,1,.591,1.2c.005.037.007.078.009.12-.005.234-.023.466-.048.7-.014.042-.03.084-.043.131a.608.608,0,0,0-.013.307c-.04.279-.088.557-.132.836C327.953,215.515,327.832,216.273,327.691,217.028Z" fill="#2d2d44"/>
                    <path id="Path_62" data-name="Path 62" d="M311.224,210.441c-1.309-.02-2.62.012-3.928.021s-2.6.018-3.893.033l-2.229.024a.461.461,0,0,0,0,.922q3.91-.01,7.82-.039c.743,0,1.487,0,2.23-.022A.47.47,0,0,0,311.224,210.441Z" fill="#2d2d44"/>
                    <path id="Path_63" data-name="Path 63" d="M334.043,212.936a.935.935,0,0,0-.629-.21l-.664-.1c-.443-.063-.885-.126-1.329-.181-.419-.053-.838-.1-1.258-.139a4.477,4.477,0,0,0-1.312-.035.207.207,0,0,0-.049.375,4.343,4.343,0,0,0,1.235.332c.426.082.852.161,1.28.231s.836.132,1.255.193l.664.1a1.054,1.054,0,0,0,.737-.019A.354.354,0,0,0,334.043,212.936Z" fill="#2d2d44"/>
                  </g>
                  <path id="Path_64" data-name="Path 64" d="M325.368,207.519l-.008-.016a.242.242,0,0,0-.086-.152,2.886,2.886,0,0,0-.688-.631,6.6,6.6,0,0,0-.924-.589,7.007,7.007,0,0,0-6.473.01,6.421,6.421,0,0,0-1.94,1.548.286.286,0,0,0-.021.031.213.213,0,0,0,.04.335c.021.009.043.016.064.024l.014.005a2.619,2.619,0,0,0,.88.053q.479,0,.957-.015l1.949-.051c1.3-.034,2.6-.081,3.9-.123l1.063-.035.567-.019a1.239,1.239,0,0,0,.567-.09.265.265,0,0,0,.121-.157A.135.135,0,0,0,325.368,207.519Z" fill="#2d2d44"/>
                  <path id="Path_65" data-name="Path 65" d="M334.653,208.136a.255.255,0,0,0,.063.188,1.248,1.248,0,0,0,.506.271l.53.2.993.38c1.215.466,2.427.935,3.644,1.392l1.826.686c.3.112.6.22.9.327a2.634,2.634,0,0,0,.849.238h.014a.529.529,0,0,0,.069,0,.212.212,0,0,0,.147-.3.256.256,0,0,0-.009-.035,6.423,6.423,0,0,0-1.328-2.1,6.993,6.993,0,0,0-6.113-2.126,6.486,6.486,0,0,0-1.066.254,2.87,2.87,0,0,0-.856.371.244.244,0,0,0-.131.116l-.013.012A.134.134,0,0,0,334.653,208.136Z" fill="#2d2d44"/>
                </g>
                <g id="Group_23" data-name="Group 23">
                  <path id="Path_66" data-name="Path 66" d="M326.958,379.766c-1.2,10.039-1.674,15.3-4.064,24.141-16.255,6.932-21.035,9.8-21.035,9.8L291.1,397.694s5.975-8.367,8.127-15.3,5.976-26.77,6.932-40.395c.657-9.367,1.653-26.642,2.211-36.525.254-4.492.418-7.457.418-7.457l9.561.718s.6,2.648,1.439,6.739c1.547,7.5,3.932,19.847,5.015,29.593C325.92,345.093,328.152,369.726,326.958,379.766Z" fill="#ed6436"/>
                  <path id="Path_67" data-name="Path 67" d="M319.791,305.475H308.373c.254-4.492.418-7.457.418-7.457l9.561.718S318.947,301.384,319.791,305.475Z" fill="#f23d00"/>
                  <path id="Path_68" data-name="Path 68" d="M309.718,289.7a3.791,3.791,0,0,0-2.708,4.652c.472,2.357.158,5.972,1.886,6.6s9.119,1.349,10.687.158c1.313-1,2.085-7.047.984-9.876S309.718,289.7,309.718,289.7Z" fill="#ed6436"/>
                </g>
              </g>
              <g id="Group_27" data-name="Group 27">
                <g id="Group_25" data-name="Group 25">
                  <path id="Path_69" data-name="Path 69" d="M233.984,269.771c-5.27,1.863-15,23.4-15,36.87s-3.369,87.923-.337,98.029,1.684,22.907,20.212,22.907h44.129l8.112-29.883s1.7-8.863-9.417-10.21c-6.063-3.369-4.421-9.427-9.811-7.742-4.043-33.013-1.011-45.477-4.716-65.353S255.383,262.208,233.984,269.771Z" fill="#f2ebdf"/>
                  <path id="Path_70" data-name="Path 70" d="M269.776,373.933a18.75,18.75,0,0,0-5.515-5.986,21.375,21.375,0,0,0-7.367-3.445,20.874,20.874,0,0,0-15.726,2.08,22.51,22.51,0,0,0-10.039,12.3c-.7,2.131-1.985,6.182.792,7.343a4.252,4.252,0,0,0,3.932-.505c1.383-.854,2.626-1.961,3.966-2.885a67.358,67.358,0,0,1,9.5-5.474c3.412-1.612,6.968-2.907,10.456-4.345a.263.263,0,0,0-.14-.506c-5.957.9-11.626,3.6-16.771,6.646q-1.932,1.145-3.783,2.416c-1.217.836-2.363,1.774-3.585,2.6-.873.589-2.681,1.468-3.391.155-.559-1.033.04-2.767.324-3.823a20.8,20.8,0,0,1,8.334-11.6,19.3,19.3,0,0,1,14.166-3.1,21.771,21.771,0,0,1,7.86,3.024,20.949,20.949,0,0,1,3.292,2.508,29.573,29.573,0,0,1,2.821,3.269C269.31,375.123,270.054,374.467,269.776,373.933Z" fill="#c4b199"/>
                  <path id="Path_71" data-name="Path 71" d="M265.9,378.609a19.2,19.2,0,0,0-8.331,2.179,24.738,24.738,0,0,0-7.132,5.115,8.942,8.942,0,0,0-2.456,3.5,2.459,2.459,0,0,0,1.57,3.053,3.918,3.918,0,0,0,3.7-.9c1.413-1.092,2.719-2.351,4.056-3.534,1.528-1.352,3.049-2.713,4.577-4.065.781-.691,1.584-1.364,2.346-2.076A17.473,17.473,0,0,0,266,379.85l.073-.017A.626.626,0,0,0,265.9,378.609Zm-1.639,1.695c-.657.48-1.267,1-1.882,1.53q-1.83,1.587-3.662,3.173-1.78,1.535-3.555,3.077a19.826,19.826,0,0,1-3.475,2.844c-.957.5-2.529.33-2.148-1.1a7.816,7.816,0,0,1,2.291-3.008,24.352,24.352,0,0,1,6.159-4.432,25,25,0,0,1,3.852-1.536c.844-.263,1.7-.456,2.553-.643C264.355,380.242,264.31,380.272,264.266,380.3Z" fill="#c4b199"/>
                  <path id="Path_72" data-name="Path 72" d="M271.949,382.746a27.146,27.146,0,0,0-7.306,5.128,38.064,38.064,0,0,0-5.818,6.8,36.564,36.564,0,0,0-6.179,23.5,16.7,16.7,0,0,0,1.1,5.487c.186.415.806.18.813-.221.026-1.589-.26-3.174-.346-4.76a38.582,38.582,0,0,1,.031-4.809,39.279,39.279,0,0,1,1.791-9.45,36.9,36.9,0,0,1,9-14.57,41.213,41.213,0,0,1,3.509-3.133c1.3-1.031,2.717-1.883,4.053-2.86A.646.646,0,0,0,271.949,382.746Z" fill="#c4b199"/>
                  <path id="Path_73" data-name="Path 73" d="M276.566,389.324a8.876,8.876,0,0,0-3.592.914,15.807,15.807,0,0,0-3.241,1.88,16.518,16.518,0,0,0-4.821,5.682c-.927,1.827-2.081,4.557-1.076,6.572a2.141,2.141,0,0,0,2.667,1.082c1.307-.474,2.048-1.88,2.756-2.976,2.127-3.291,4.36-6.531,6.234-9.977.177-.325-.291-.735-.539-.415-1.769,2.282-3.346,4.7-4.932,7.108-.815,1.239-1.616,2.491-2.454,3.715-.455.666-1.687,2.179-2.51,1.108a3.369,3.369,0,0,1-.166-2.714A13.8,13.8,0,0,1,266,398.319a15.428,15.428,0,0,1,4.043-4.966,15.262,15.262,0,0,1,3.143-1.951c1.131-.526,2.342-.773,3.495-1.221A.439.439,0,0,0,276.566,389.324Z" fill="#c4b199"/>
                </g>
                <g id="Group_26" data-name="Group 26">
                  <path id="Path_74" data-name="Path 74" d="M284.553,397.568c-5.744.492-13.687,7.474-15.231,13.883s1.692,15.533,8.612,18.253c55.778-.481,69.26-.056,88.039-10.452,10.87-.414,33.119,2.113,35.5-.306s-6.217-16.257-14.876-19.061c9.916.234,23.411,7.473,24.346,4.587s-9.043-8.209-18.164-11.162c-8.265-2.676-11.48-3.1-22.238-.482-5.838,1.422-21.828,10.715-23.449,10.889C320.3,406.592,297.017,396.5,284.553,397.568Z" fill="#faa88d"/>
                  <path id="Path_75" data-name="Path 75" d="M401.236,416.7c-1.056-1.453-2.048-2.974-3.222-4.336a23.9,23.9,0,0,0-4.167-3.592,35.063,35.063,0,0,0-9.986-4.957,21.524,21.524,0,0,0-6.155-1.187.6.6,0,0,0-.148,1.173c2.223.582,4.467.977,6.652,1.718a34.864,34.864,0,0,1,6.187,2.8,38.427,38.427,0,0,1,5.593,3.885,36.723,36.723,0,0,1,5.114,4.6C401.164,416.877,401.292,416.777,401.236,416.7Z" fill="#ef515f"/>
                  <path id="Path_76" data-name="Path 76" d="M400.235,417.582a50.523,50.523,0,0,0-6.22-2.281c-2.076-.646-4.148-1.312-6.243-1.895A51.112,51.112,0,0,0,381.481,412a27.189,27.189,0,0,0-3.181-.327,10.547,10.547,0,0,0-1.433.044,18.617,18.617,0,0,1-1.866.319.049.049,0,0,0,0,.1,11.117,11.117,0,0,1,1.814.447c.487.107.982.18,1.475.251,1.043.151,2.088.285,3.126.473,2.072.377,4.114.872,6.138,1.449,4.123,1.174,8.221,2.684,12.462,3.36C400.313,418.161,400.557,417.732,400.235,417.582Z" fill="#ef515f"/>
                  <path id="Path_77" data-name="Path 77" d="M389.279,399.494a4.226,4.226,0,0,0-1.5-.8c-.56-.238-1.118-.471-1.689-.682-1.231-.454-2.477-.861-3.724-1.266s-2.5-.793-3.745-1.189a15.052,15.052,0,0,0-3.646-.961c-.5-.024-.6.643-.23.881a15.132,15.132,0,0,0,3.539,1.343c1.245.408,2.488.824,3.736,1.224s2.494.8,3.756,1.147c.632.175,1.27.313,1.909.457a3.657,3.657,0,0,0,1.509.181A.2.2,0,0,0,389.279,399.494Z" fill="#ef515f"/>
                </g>
              </g>
            </g>
          </g>
          <g id="Group_33" data-name="Group 33">
            <g id="Group_30" data-name="Group 30">
              <path id="Path_78" data-name="Path 78" d="M494.127,271.448c-8.988-.646-23.181,2.812-25.082,18.6s16.871,21.108,16.871,21.108l-.341,9.083,6.126-7.586s15.077,1.484,21.734-9.837S517.653,273.139,494.127,271.448Z" fill="#fff"/>
              <path id="Path_79" data-name="Path 79" d="M488.3,281.668l5.91-1.534,2.546,17.913-3.283.852Z" fill="#ef515f"/>
              <circle id="Ellipse_1" data-name="Ellipse 1" cx="2.069" cy="2.069" r="2.069" transform="translate(494.186 301.782)" fill="#ef515f"/>
            </g>
            <g id="Group_31" data-name="Group 31">
              <path id="Path_80" data-name="Path 80" d="M410.566,335.6c8.537-2.882,23.144-3.1,28.949,11.7s-11.029,24.669-11.029,24.669l2.612,8.706-7.836-5.8s-14.22,5.224-23.507-4.063S388.219,343.15,410.566,335.6Z" fill="#fff"/>
              <path id="Path_81" data-name="Path 81" d="M418.772,344.033h-6.106L414.7,362.01h3.392Z" fill="#f23d00"/>
              <path id="Path_82" data-name="Path 82" d="M414.576,367.5a2.069,2.069,0,1,0,2.069-2.069A2.069,2.069,0,0,0,414.576,367.5Z" fill="#f23d00"/>
            </g>
            <g id="Group_32" data-name="Group 32">
              <path id="Path_83" data-name="Path 83" d="M565,327.438l-94.337-.47L427.189,427.156H525.2l44.518-96.09Z" fill="#6f84fd"/>
              <path id="Path_84" data-name="Path 84" d="M317.783,417.837v9.319H427.189v-8.282Z" fill="#8fbcff"/>
              <path id="Path_85" data-name="Path 85" d="M422.619,424.651l4.57,2.5,47.932-98.348-4.458-1.841Z" fill="#8fbcff"/>
              <circle id="Ellipse_2" data-name="Ellipse 2" cx="6.532" cy="6.532" r="6.532" transform="translate(499.458 370.266)" fill="#9bd1ff"/>
            </g>
          </g>
          <g id="Group_34" data-name="Group 34">
            <rect id="Rectangle_4" data-name="Rectangle 4" width="570.4" height="68.8" transform="translate(59.136 431.199)" fill="#1a1a28"/>
            <rect id="Rectangle_5" data-name="Rectangle 5" width="232.1" height="68.8" transform="translate(59.136 431.199)" fill="#2d2d44"/>
            <rect id="Rectangle_6" data-name="Rectangle 6" width="593.814" height="10.99" transform="translate(49.616 425.044)" fill="#1a1a28"/>
          </g>
        </g>
        <g id="Group_52" data-name="Group 52">
          <g id="Group_37" data-name="Group 37">
            <path id="Path_86" data-name="Path 86" d="M510.964,291.332c-9.731,18.164-24.327,39.9-24.327,39.9l-12.974.648s-28.217-23.028-39.569-56.437c30.163-9.406,40.867-34.7,40.867-34.7S486.314,274.466,510.964,291.332Z" fill="#fff"/>
            <path id="Path_87" data-name="Path 87" d="M486.637,331.228l-12.974.648,5.892-6.293Z" fill="#e2d3bf"/>
            <g id="Group_36" data-name="Group 36">
              <path id="Path_88" data-name="Path 88" d="M474,259.433c-1.228.138-2.261,1.262-3.157,2.04l-3.472,3.014-6.944,6.027q-3.471,3.014-6.921,6.05l-3.312,2.9a21.1,21.1,0,0,0-3.246,3.167c-.346.474.309.994.755.755a20.557,20.557,0,0,0,3.451-2.693q1.738-1.5,3.476-3.009,3.4-2.946,6.8-5.9l6.777-5.923,3.461-3.025c.924-.809,2.337-1.733,2.651-2.985C474.37,259.665,474.226,259.408,474,259.433Z" fill="#2d2d44"/>
              <path id="Path_89" data-name="Path 89" d="M478.468,269.194a9.332,9.332,0,0,0-3.1,2.042l-3.033,2.678q-3.107,2.742-6.189,5.508c-4.121,3.679-8.293,7.285-12.1,11.288-.238.249.083.72.384.5,4.384-3.232,8.431-6.852,12.538-10.424,2.037-1.771,4.077-3.538,6.1-5.321l3.184-2.8a9.938,9.938,0,0,0,2.6-2.959C478.985,269.455,478.774,269.085,478.468,269.194Z" fill="#2d2d44"/>
              <path id="Path_90" data-name="Path 90" d="M483.2,278.995c-3.638,3.374-7.026,7.074-10.507,10.61-1.7,1.729-3.354,3.506-5.02,5.268a40.5,40.5,0,0,0-4.734,5.627.205.205,0,0,0,.279.279,39.339,39.339,0,0,0,5.448-4.642c1.794-1.724,3.6-3.435,5.364-5.2,3.508-3.51,7.18-6.927,10.525-10.592A.959.959,0,0,0,483.2,278.995Z" fill="#2d2d44"/>
              <path id="Path_91" data-name="Path 91" d="M491.138,285.416c-.93-1.684-3.126,1.848-3.612,2.452-2.893,3.6-5.812,7.187-8.668,10.82-1.554,1.976-3.106,3.952-4.623,5.957a54.8,54.8,0,0,0-4.589,6.581.273.273,0,0,0,.427.33,46.935,46.935,0,0,0,4.709-5.036q2.245-2.629,4.444-5.3c2.932-3.569,5.815-7.178,8.711-10.776.724-.9,1.451-1.8,2.172-2.7C490.565,287.174,491.6,286.242,491.138,285.416Z" fill="#2d2d44"/>
              <path id="Path_92" data-name="Path 92" d="M497.168,294.446l-9.074,12.59c-1.492,2.07-2.941,4.172-4.42,6.252a47.386,47.386,0,0,0-4.264,6.564.44.44,0,0,0,.688.531,46.215,46.215,0,0,0,4.806-5.934c1.562-2.107,3.149-4.2,4.7-6.311q4.646-6.339,9.273-12.693C499.626,294.418,497.908,293.42,497.168,294.446Z" fill="#2d2d44"/>
            </g>
          </g>
          <g id="Group_39" data-name="Group 39">
            <path id="Path_93" data-name="Path 93" d="M162.683,301.284c-11.564,21.584-28.909,47.409-28.909,47.409l-15.417.77S84.826,322.1,71.337,282.4c35.843-11.178,48.562-41.24,48.562-41.24S133.391,281.242,162.683,301.284Z" fill="#fff"/>
            <path id="Path_94" data-name="Path 94" d="M133.774,348.693l-15.417.77,7-7.478Z" fill="#e2d3bf"/>
            <g id="Group_38" data-name="Group 38">
              <path id="Path_95" data-name="Path 95" d="M118.761,263.378c-1.46.164-2.686,1.5-3.751,2.424l-4.126,3.581-8.252,7.162q-4.124,3.58-8.224,7.19l-3.936,3.451a25.014,25.014,0,0,0-3.857,3.763c-.411.563.366,1.181.9.9a24.381,24.381,0,0,0,4.1-3.2q2.067-1.787,4.132-3.576,4.044-3.5,8.081-7.012l8.053-7.039,4.113-3.6c1.1-.961,2.778-2.06,3.151-3.547A.4.4,0,0,0,118.761,263.378Z" fill="#2d2d44"/>
              <path id="Path_96" data-name="Path 96" d="M124.067,274.976a11.1,11.1,0,0,0-3.68,2.427l-3.605,3.183q-3.69,3.258-7.353,6.545c-4.9,4.372-9.855,8.657-14.385,13.414-.282.3.1.856.457.592,5.21-3.84,10.019-8.142,14.9-12.387,2.42-2.105,4.845-4.2,7.253-6.323l3.784-3.328a11.807,11.807,0,0,0,3.1-3.516C124.682,275.288,124.431,274.847,124.067,274.976Z" fill="#2d2d44"/>
              <path id="Path_97" data-name="Path 97" d="M129.694,286.623c-4.323,4.01-8.349,8.407-12.486,12.609-2.021,2.054-3.986,4.166-5.965,6.26a48.142,48.142,0,0,0-5.626,6.687.245.245,0,0,0,.332.332,46.89,46.89,0,0,0,6.474-5.517c2.132-2.049,4.283-4.082,6.374-6.173,4.169-4.171,8.532-8.232,12.507-12.588A1.139,1.139,0,0,0,129.694,286.623Z" fill="#2d2d44"/>
              <path id="Path_98" data-name="Path 98" d="M139.123,294.253c-1.106-2-3.715,2.2-4.292,2.915-3.438,4.281-6.906,8.54-10.3,12.857-1.846,2.349-3.69,4.7-5.493,7.08a65.077,65.077,0,0,0-5.453,7.82.325.325,0,0,0,.508.391,55.96,55.96,0,0,0,5.595-5.983q2.669-3.126,5.281-6.3c3.484-4.241,6.91-8.529,10.351-12.806q1.291-1.6,2.582-3.208C138.443,296.343,139.666,295.236,139.123,294.253Z" fill="#2d2d44"/>
              <path id="Path_99" data-name="Path 99" d="M146.288,304.985l-10.782,14.96c-1.773,2.46-3.495,4.958-5.253,7.43a56.222,56.222,0,0,0-5.066,7.8.522.522,0,0,0,.817.63,54.991,54.991,0,0,0,5.711-7.052c1.856-2.5,3.742-4.986,5.584-7.5q5.521-7.533,11.019-15.084C149.21,304.951,147.167,303.765,146.288,304.985Z" fill="#2d2d44"/>
            </g>
          </g>
          <g id="Group_41" data-name="Group 41">
            <path id="Path_100" data-name="Path 100" d="M403.655,118.783c3.8-23.375,5.647-53.4,5.647-53.4l-11.392-9.65s-41.837,1.321-75.525,23.9c20.967,29.646,13.076,60.213,13.076,60.213S369.377,116.97,403.655,118.783Z" fill="#fff"/>
            <path id="Path_101" data-name="Path 101" d="M409.3,65.378,397.91,55.728l.985,9.859Z" fill="#e2d3bf"/>
            <g id="Group_40" data-name="Group 40">
              <path id="Path_102" data-name="Path 102" d="M347.642,122.1c-1.025-.984-1.183-2.73-1.458-4.066l-1.065-5.175q-1.066-5.175-2.131-10.351c-.71-3.449-1.4-6.9-2.093-10.355q-.5-2.482-1-4.963a24.231,24.231,0,0,1-.752-5.158c.015-.674.975-.692,1.215-.162a23.554,23.554,0,0,1,1.271,4.867q.539,2.587,1.073,5.174c.7,3.378,1.4,6.754,2.088,10.135s1.368,6.76,2.051,10.14q.523,2.589,1.048,5.177c.28,1.384.924,3.215.336,4.577A.385.385,0,0,1,347.642,122.1Z" fill="#2d2d44"/>
              <path id="Path_103" data-name="Path 103" d="M358.533,116.305a10.71,10.71,0,0,1-1.4-4.026l-.9-4.563c-.613-3.114-1.207-6.232-1.8-9.349-1.194-6.236-2.485-12.44-3.17-18.756-.042-.393.579-.6.7-.186,1.746,6.011,2.913,12.141,4.168,18.27.622,3.039,1.251,6.076,1.857,9.118q.475,2.391.952,4.78a11.433,11.433,0,0,1,.312,4.52C359.188,116.428,358.736,116.618,358.533,116.305Z" fill="#2d2d44"/>
              <path id="Path_104" data-name="Path 104" d="M369.7,110.664c-.965-5.62-1.475-11.363-2.184-17.022-.346-2.766-.615-5.542-.905-8.314a46.61,46.61,0,0,1-.393-8.443.236.236,0,0,1,.45-.06,45.336,45.336,0,0,1,1.732,8.042c.434,2.827.892,5.653,1.27,8.488.752,5.653,1.718,11.337,2.212,17.018A1.1,1.1,0,0,1,369.7,110.664Z" fill="#2d2d44"/>
              <path id="Path_105" data-name="Path 105" d="M381.425,110.342c-2.025.888-1.564-3.87-1.585-4.76-.125-5.309-.287-10.619-.359-15.929-.039-2.89-.076-5.777-.06-8.667a62.938,62.938,0,0,1,.4-9.211.314.314,0,0,1,.62,0,54.216,54.216,0,0,1,.783,7.884q.213,3.971.356,7.941c.186,5.305.3,10.613.429,15.92.033,1.327.07,2.654.1,3.981C382.13,108.337,382.42,109.907,381.425,110.342Z" fill="#2d2d44"/>
              <path id="Path_106" data-name="Path 106" d="M393.235,106.308l.506-17.828c.084-2.931.228-5.862.33-8.794a54.541,54.541,0,0,1,.691-8.969.506.506,0,0,1,1-.005A53.085,53.085,0,0,1,396,79.485c-.044,3.014-.054,6.029-.116,9.042q-.184,9.031-.4,18.062C395.459,108.051,393.193,107.762,393.235,106.308Z" fill="#2d2d44"/>
            </g>
          </g>
          <g id="Group_43" data-name="Group 43">
            <path id="Path_107" data-name="Path 107" d="M619.145,86.311c-4.548-18.523-12.636-41.364-12.636-41.364l-11.483-3.564s-30.595,14.157-48.455,41.5c24.88,15.37,28.659,40.513,28.659,40.513S593.166,95.764,619.145,86.311Z" fill="#fff"/>
            <path id="Path_108" data-name="Path 108" d="M606.509,44.947l-11.483-3.564,3.836,7Z" fill="#e2d3bf"/>
            <g id="Group_42" data-name="Group 42">
              <path id="Path_109" data-name="Path 109" d="M578.671,106.411c-1.069-.406-1.737-1.651-2.361-2.555l-2.42-3.5-4.84-7q-2.418-3.5-4.813-7.016l-2.3-3.365a19.477,19.477,0,0,1-2.182-3.586c-.2-.5.505-.82.85-.5a19,19,0,0,1,2.475,3.207q1.214,1.749,2.425,3.5,2.375,3.425,4.74,6.854l4.714,6.87q1.2,1.753,2.407,3.508c.643.937,1.7,2.091,1.691,3.286C579.054,106.288,578.865,106.485,578.671,106.411Z" fill="#2d2d44"/>
              <path id="Path_110" data-name="Path 110" d="M584.919,98.687a8.633,8.633,0,0,1-2.307-2.543q-1.051-1.549-2.1-3.1c-1.436-2.115-2.857-4.239-4.281-6.362-2.849-4.246-5.761-8.438-8.257-12.9-.156-.277.24-.626.459-.358,3.187,3.906,5.983,8.082,8.844,12.229,1.418,2.057,2.841,4.11,4.249,6.175q1.105,1.62,2.21,3.242a9.2,9.2,0,0,1,1.656,3.253C585.443,98.571,585.168,98.855,584.919,98.687Z" fill="#2d2d44"/>
              <path id="Path_111" data-name="Path 111" d="M591.418,90.988c-2.485-3.862-4.672-7.958-6.98-11.929-1.128-1.941-2.2-3.914-3.29-5.877a37.558,37.558,0,0,1-2.95-6.135.191.191,0,0,1,.315-.186,36.5,36.5,0,0,1,3.816,5.416c1.213,1.958,2.442,3.908,3.615,5.891,2.338,3.953,4.845,7.862,7,11.917A.888.888,0,0,1,591.418,90.988Z" fill="#2d2d44"/>
              <path id="Path_112" data-name="Path 112" d="M600.009,87.056c-1.221,1.3-2.378-2.376-2.674-3.029-1.766-3.9-3.558-7.78-5.284-11.694-.939-2.13-1.876-4.258-2.775-6.4a50.728,50.728,0,0,1-2.6-6.955.253.253,0,0,1,.458-.2,43.557,43.557,0,0,1,3.064,5.6q1.409,2.875,2.765,5.773c1.809,3.874,3.564,7.773,5.333,11.665.442.974.887,1.946,1.326,2.92C599.9,85.348,600.609,86.42,600.009,87.056Z" fill="#2d2d44"/>
              <path id="Path_113" data-name="Path 113" d="M607.492,80.346l-5.24-13.374c-.862-2.2-1.678-4.417-2.525-6.622a43.82,43.82,0,0,1-2.314-6.866.407.407,0,0,1,.739-.318,42.88,42.88,0,0,1,2.944,6.426c.916,2.248,1.859,4.486,2.762,6.739q2.708,6.751,5.4,13.513C609.69,80.937,607.919,81.437,607.492,80.346Z" fill="#2d2d44"/>
            </g>
          </g>
          <g id="Group_45" data-name="Group 45">
            <path id="Path_114" data-name="Path 114" d="M674.186,139.207c19.072.052,43.177,2.526,43.177,2.526l6.171,10.319s-6.543,33.07-28.9,56.874c-20.8-20.553-46.129-18.3-46.129-18.3S671.126,166.683,674.186,139.207Z" fill="#fff"/>
            <path id="Path_115" data-name="Path 115" d="M717.363,141.733l6.172,10.319-7.7-2.077Z" fill="#e2d3bf"/>
            <g id="Group_44" data-name="Group 44">
              <path id="Path_116" data-name="Path 116" d="M664.2,183.28c.647.943,2.014,1.3,3.039,1.692l3.972,1.526,7.945,3.052c2.648,1.018,5.3,2.019,7.954,3.024l3.812,1.443a19.46,19.46,0,0,0,4,1.275c.538.077.678-.684.288-.945a18.936,18.936,0,0,0-3.7-1.648q-1.984-.768-3.971-1.532c-2.592-1-5.182-2-7.779-2.99l-7.787-2.961-3.977-1.513c-1.063-.4-2.433-1.156-3.592-.868A.31.31,0,0,0,664.2,183.28Z" fill="#2d2d44"/>
              <path id="Path_117" data-name="Path 117" d="M670.23,175.387a8.646,8.646,0,0,0,3.015,1.642l3.508,1.313c2.393.9,4.793,1.778,7.191,2.661,4.8,1.767,9.559,3.608,14.488,4.981.306.086.552-.381.24-.53-4.548-2.177-9.266-3.909-13.971-5.711-2.333-.894-4.664-1.793-7-2.673l-3.673-1.384a9.213,9.213,0,0,0-3.551-.842C670.218,174.85,670.008,175.184,670.23,175.387Z" fill="#2d2d44"/>
              <path id="Path_118" data-name="Path 118" d="M676.178,167.255c4.34,1.5,8.836,2.664,13.239,3.97,2.152.639,4.323,1.216,6.488,1.811a37.569,37.569,0,0,0,6.657,1.421.19.19,0,0,0,.106-.35,36.6,36.6,0,0,0-6.162-2.432c-2.19-.716-4.375-1.451-6.578-2.123-4.393-1.34-8.783-2.854-13.232-3.993A.887.887,0,0,0,676.178,167.255Z" fill="#2d2d44"/>
              <path id="Path_119" data-name="Path 119" d="M677.974,157.979c-.972,1.493,2.87,1.751,3.574,1.885,4.2.8,8.4,1.623,12.61,2.377,2.291.41,4.581.819,6.879,1.186a50.594,50.594,0,0,0,7.373.887.253.253,0,0,0,.083-.492,43.454,43.454,0,0,0-6.162-1.657q-3.126-.691-6.263-1.326c-4.191-.844-8.394-1.63-12.593-2.431-1.05-.2-2.1-.4-3.151-.6C679.659,157.682,678.45,157.246,677.974,157.979Z" fill="#2d2d44"/>
              <path id="Path_120" data-name="Path 120" d="M682.73,149.125l14.232,1.939c2.341.318,4.689.588,7.031.892a43.867,43.867,0,0,0,7.218.629.407.407,0,0,0,.135-.793,42.79,42.79,0,0,0-6.939-1.345c-2.4-.361-4.8-.749-7.2-1.1q-7.2-1.039-14.4-2.056C681.637,147.129,681.569,148.967,682.73,149.125Z" fill="#2d2d44"/>
            </g>
          </g>
          <g id="Group_47" data-name="Group 47">
            <path id="Path_121" data-name="Path 121" d="M43.347,61.244c19.072.052,43.177,2.526,43.177,2.526l6.171,10.319s-6.543,33.07-28.9,56.874c-20.8-20.553-46.129-18.3-46.129-18.3S40.287,88.72,43.347,61.244Z" fill="#fff"/>
            <path id="Path_122" data-name="Path 122" d="M86.524,63.77,92.7,74.089l-7.7-2.077Z" fill="#e2d3bf"/>
            <g id="Group_46" data-name="Group 46">
              <path id="Path_123" data-name="Path 123" d="M33.357,105.317c.648.943,2.015,1.3,3.04,1.692l3.972,1.526,7.945,3.052q3.972,1.525,7.954,3.023l3.812,1.444a19.52,19.52,0,0,0,4,1.275c.538.076.678-.684.288-.945a18.938,18.938,0,0,0-3.7-1.648q-1.984-.768-3.971-1.532c-2.592-1-5.182-2-7.779-2.99l-7.787-2.962-3.977-1.512c-1.063-.4-2.433-1.156-3.592-.868A.311.311,0,0,0,33.357,105.317Z" fill="#2d2d44"/>
              <path id="Path_124" data-name="Path 124" d="M39.39,97.424a8.65,8.65,0,0,0,3.016,1.642l3.508,1.313c2.393.9,4.793,1.778,7.191,2.661,4.8,1.767,9.559,3.608,14.488,4.981.306.086.552-.381.24-.53-4.548-2.177-9.266-3.909-13.971-5.711-2.333-.894-4.664-1.792-7-2.673l-3.673-1.384a9.2,9.2,0,0,0-3.551-.842C39.379,96.887,39.169,97.221,39.39,97.424Z" fill="#2d2d44"/>
              <path id="Path_125" data-name="Path 125" d="M45.339,89.292c4.339,1.5,8.836,2.664,13.239,3.97,2.152.638,4.323,1.216,6.488,1.811a37.579,37.579,0,0,0,6.656,1.421.191.191,0,0,0,.107-.35,36.578,36.578,0,0,0-6.163-2.432c-2.189-.716-4.374-1.451-6.577-2.123-4.393-1.34-8.783-2.854-13.232-3.993A.887.887,0,0,0,45.339,89.292Z" fill="#2d2d44"/>
              <path id="Path_126" data-name="Path 126" d="M47.135,80.016C46.163,81.509,50,81.767,50.709,81.9c4.2.8,8.4,1.623,12.61,2.377,2.291.41,4.581.818,6.879,1.186a50.734,50.734,0,0,0,7.372.887.253.253,0,0,0,.084-.492A43.454,43.454,0,0,0,71.492,84.2q-3.126-.692-6.263-1.326c-4.191-.844-8.394-1.63-12.593-2.432-1.05-.2-2.1-.4-3.151-.6C48.82,79.719,47.611,79.283,47.135,80.016Z" fill="#2d2d44"/>
              <path id="Path_127" data-name="Path 127" d="M51.891,71.162,66.123,73.1c2.341.319,4.689.589,7.031.893a43.867,43.867,0,0,0,7.218.629.407.407,0,0,0,.135-.793,42.922,42.922,0,0,0-6.939-1.346c-2.4-.36-4.8-.748-7.2-1.094q-7.2-1.041-14.4-2.057C50.8,69.166,50.73,71,51.891,71.162Z" fill="#2d2d44"/>
            </g>
          </g>
          <g id="Group_49" data-name="Group 49">
            <path id="Path_128" data-name="Path 128" d="M542.561,240.466c19.975,14.7,47.082,30.756,47.082,30.756l14.432-6.011s18.739-39.626,13.781-81.8c-37.641,5.391-62.365-16.555-62.365-16.555S560.614,209.382,542.561,240.466Z" fill="#fff"/>
            <path id="Path_129" data-name="Path 129" d="M589.643,271.222l14.432-6.011-9.659-3.788Z" fill="#e2d3bf"/>
            <g id="Group_48" data-name="Group 48">
              <path id="Path_130" data-name="Path 130" d="M566.21,186.675c1.406-.485,3.109.2,4.485.582l5.333,1.478,10.664,2.955c3.554.985,7.1,1.99,10.651,2.992l5.1,1.44a25.35,25.35,0,0,1,5.166,1.761c.621.336.179,1.239-.429,1.21a24.623,24.623,0,0,1-5.143-1.139q-2.668-.732-5.335-1.47c-3.482-.959-6.965-1.915-10.443-2.891l-10.43-2.929-5.326-1.495c-1.423-.4-3.437-.673-4.426-1.871A.4.4,0,0,1,566.21,186.675Z" fill="#2d2d44"/>
              <path id="Path_131" data-name="Path 131" d="M566.41,199.591a11.255,11.255,0,0,1,4.422.616l4.682,1.34c3.2.915,6.385,1.85,9.575,2.782,6.382,1.865,12.781,3.623,18.995,6,.386.148.282.826-.16.741-6.436-1.243-12.707-3.081-19.019-4.837-3.129-.871-6.261-1.734-9.385-2.622l-4.909-1.394a11.978,11.978,0,0,1-4.363-1.867C565.983,200.144,566.021,199.632,566.41,199.591Z" fill="#2d2d44"/>
              <path id="Path_132" data-name="Path 132" d="M566.338,212.692c5.7,1.783,11.295,4.05,16.908,6.09,2.743,1,5.459,2.073,8.182,3.125a48.8,48.8,0,0,1,8.056,3.664.248.248,0,0,1-.159.448A47.436,47.436,0,0,1,591,223.794c-2.842-.944-5.7-1.866-8.517-2.868-5.628-2-11.388-3.81-16.919-6.061A1.154,1.154,0,0,1,566.338,212.692Z" fill="#2d2d44"/>
              <path id="Path_133" data-name="Path 133" d="M561.04,223.775c.139-2.311,4.354.39,5.194.8,5.008,2.418,10.035,4.8,15.018,7.27,2.712,1.342,5.421,2.686,8.107,4.08a65.915,65.915,0,0,1,8.392,4.775.329.329,0,0,1-.293.579,56.611,56.611,0,0,1-7.723-3.034q-3.8-1.7-7.571-3.458c-5.034-2.36-10.034-4.789-15.043-7.2q-1.879-.9-3.758-1.809C562.572,225.389,560.971,224.91,561.04,223.775Z" fill="#2d2d44"/>
              <path id="Path_134" data-name="Path 134" d="M559.163,236.708l16.375,8.982c2.692,1.478,5.355,3.011,8.039,4.506a56.936,56.936,0,0,1,8.03,4.926.529.529,0,0,1-.472.932,55.686,55.686,0,0,1-8.294-3.961c-2.787-1.479-5.593-2.928-8.372-4.424q-8.329-4.482-16.645-8.992C556.477,237.95,557.828,235.976,559.163,236.708Z" fill="#2d2d44"/>
            </g>
          </g>
          <g id="Group_51" data-name="Group 51">
            <path id="Path_135" data-name="Path 135" d="M227.511,97.879c-2.756,27.19-9.673,61.215-9.673,61.215l-15.583,7.35s-46.238-13.981-77.038-49.214c32.234-26.776,32.578-63.206,32.578-63.206S188.761,89.651,227.511,97.879Z" fill="#fff"/>
            <path id="Path_136" data-name="Path 136" d="M217.838,159.094l-15.582,7.35,4.046-10.695Z" fill="#e2d3bf"/>
            <g id="Group_50" data-name="Group 50">
              <path id="Path_137" data-name="Path 137" d="M166.068,77.437c-1.436.79-2.135,2.689-2.841,4.1l-2.734,5.45-5.47,10.9q-2.734,5.449-5.429,10.917l-2.6,5.234a27.922,27.922,0,0,0-2.38,5.524c-.185.756.88,1.062,1.306.543a27.187,27.187,0,0,0,2.872-5.044q1.373-2.723,2.742-5.447,2.687-5.333,5.358-10.672l5.318-10.689,2.715-5.458c.726-1.458,1.991-3.307,1.743-5A.443.443,0,0,0,166.068,77.437Z" fill="#2d2d44"/>
              <path id="Path_138" data-name="Path 138" d="M176.475,87.15a12.373,12.373,0,0,0-2.765,4.069l-2.367,4.817c-1.615,3.287-3.208,6.585-4.805,9.881-3.195,6.594-6.489,13.124-9.141,19.959-.165.425.466.841.724.416,3.743-6.178,6.877-12.662,10.108-19.118,1.6-3.2,3.211-6.4,4.8-9.609l2.489-5.042a13.18,13.18,0,0,0,1.7-4.946C177.242,87.209,176.8,86.862,176.475,87.15Z" fill="#2d2d44"/>
              <path id="Path_139" data-name="Path 139" d="M187.235,96.776c-2.756,5.976-5.042,12.225-7.524,18.321-1.212,2.979-2.342,5.993-3.494,9a53.742,53.742,0,0,0-2.962,9.293.272.272,0,0,0,.483.2,52.167,52.167,0,0,0,4.335-8.446c1.329-3.021,2.685-6.033,3.953-9.081,2.529-6.076,5.3-12.123,7.555-18.307A1.271,1.271,0,0,0,187.235,96.776Z" fill="#2d2d44"/>
              <path id="Path_140" data-name="Path 140" d="M200.209,100.64c-1.992-1.594-2.9,3.847-3.19,4.833-1.727,5.88-3.495,11.75-5.163,17.648-.907,3.209-1.811,6.416-2.658,9.642a72.61,72.61,0,0,0-2.3,10.388.362.362,0,0,0,.69.189,62.461,62.461,0,0,0,3.23-8.554q1.425-4.362,2.771-8.745c1.793-5.858,3.5-11.74,5.238-17.616.433-1.469.871-2.938,1.3-4.408C200.4,103.086,201.188,101.423,200.209,100.64Z" fill="#2d2d44"/>
              <path id="Path_141" data-name="Path 141" d="M212.166,108.668q-2.382,10.011-4.765,20.023c-.784,3.293-1.5,6.6-2.262,9.9a62.785,62.785,0,0,0-1.911,10.205.584.584,0,0,0,1.112.3,61.456,61.456,0,0,0,2.894-9.706c.852-3.372,1.742-6.736,2.574-10.112q2.494-10.122,4.958-20.252C215.167,107.391,212.555,107.035,212.166,108.668Z" fill="#2d2d44"/>
            </g>
          </g>
        </g>
        <g id="Group_53" data-name="Group 53">
          <path id="Path_142" data-name="Path 142" d="M390.7,140.323l26.1,38.227-9.105,4.993-9.2-13.475-7.375,4.762,8.843,12.953-7.722,4.235L369.21,158.289l6.757-5.649,8.5,12.451,7.107-5.155-8.842-12.953Z" fill="#fff"/>
          <path id="Path_143" data-name="Path 143" d="M441.564,149.53l7.667,11.231-27.736,15.211L394.81,136.884,418.467,117.1l7.646,11.2-15.219,11.5,3.276,4.8,13.46-9.694,7.236,10.6-13.9,9.044,3.676,5.384Z" fill="#fff"/>
          <path id="Path_144" data-name="Path 144" d="M423.452,112.935,435.7,102.7l24.024,35.191,20.735-12.782,9.2,13.483-35.429,19.43Z" fill="#fff"/>
          <path id="Path_145" data-name="Path 145" d="M527.844,63.276c10.034,14.7,3.481,31.835-14.88,43.076l-8.713,5.335,9.388,13.752-19.127,10.49L458.7,83.466,483.3,62.9C499.871,49.038,517.809,48.577,527.844,63.276Zm-22.7,16.312c-2.935-4.3-7.4-4.893-12.858-.777l-6.916,5.213,8.951,13.112,7.139-4.886C507.093,88.393,508.075,83.888,505.14,79.588Z" fill="#fff"/>
        </g>
      </g>
    </g>
  </g>
</svg>
